<?xml version="1.0" encoding="UTF-8" standalone="no"?>
<svg
   xmlns:dc="http://purl.org/dc/elements/1.1/"
   xmlns:cc="http://creativecommons.org/ns#"
   xmlns:rdf="http://www.w3.org/1999/02/22-rdf-syntax-ns#"
   xmlns:svg="http://www.w3.org/2000/svg"
   xmlns="http://www.w3.org/2000/svg"
   viewBox="0 0 652.38666 619.56"
   height="619.56"
   width="652.38666"
   xml:space="preserve"
   id="svg2"
   version="1.1"><metadata
     id="metadata8"><rdf:RDF><cc:Work
         rdf:about=""><dc:format>image/svg+xml</dc:format><dc:type
           rdf:resource="http://purl.org/dc/dcmitype/StillImage" /></cc:Work></rdf:RDF></metadata><defs
     id="defs6" /><g
     transform="matrix(1.3333333,0,0,-1.3333333,0,619.56)"
     id="g10"><g
       transform="scale(0.1)"
       id="g12"><path
         id="path14"
         style="fill:#231f20;fill-opacity:1;fill-rule:nonzero;stroke:none"
         d="m 4060.3,3282.06 h 111.68 v 46.54 h -280.93 v -46.54 h 120.25 v -353.95 h 49 z m -106.79,537.83 c 1.61,36.37 31.97,50.67 61.49,50.67 35.92,0 68.54,-12.36 90.2,-32.53 l 32.51,35.78 c -30.51,27.06 -66.42,43.79 -115.62,43.79 -70.36,0 -118.56,-41.82 -118.56,-104.8 0,-72.32 60.01,-94.26 106.26,-111.98 37.39,-15.25 84.82,-38.57 84.82,-82.36 0,-53.63 -63.53,-64.12 -78.43,-64.16 -38.41,-0.09 -69.28,10.57 -100.76,39.1 l -28.63,-35.95 c 40.83,-35.91 80.69,-50.18 129.39,-50.18 62.99,0 128.42,33.46 128.42,111.19 0,75.28 -57.3,101.35 -120.77,125.46 -34.58,11.63 -71.99,38.55 -70.32,75.97 m -365.86,-306.07 h 234.21 v 46.54 h -184.71 v 137.47 h 144.35 v 46.05 h -144.35 v 123.4 h 181.74 v 46.54 h -231.24 z m -154.73,-0.71 h 49.49 v 400.49 h -49.49 v -170.92 l -188.34,0.71 v 170.92 l -48.99,-0.71 v -400.49 h 48.99 v 183.52 h 188.34 z m -131.64,-584.87 -170.23,412.3 -170.73,-412.3 h 51.4 l 29.77,71.54 h 176.96 l 29.4,-71.54 z m -99.68,117.59 h -142.58 l 72.03,171.91 z m -367.33,667.53 c 0,86.59 65.64,158.13 144.86,158.13 39.84,0 85.23,-13.91 115.24,-40.97 l 26.45,34.86 c -39.36,33.95 -83.65,53.14 -141.69,53.14 -112.67,0 -194.84,-86.1 -194.84,-205.16 0,-119.07 82.17,-205.17 194.84,-205.17 59.03,0 102.82,19.68 142.67,54.12 l -32.82,34.07 c -30.51,-27.55 -76.6,-41.15 -116.95,-41.15 -79.21,0 -137.76,71.54 -137.76,158.13 m 34.09,-423.63 c -30.5,27.06 -66.42,43.79 -115.62,43.79 -70.35,0 -118.57,-41.82 -118.57,-104.79 0,-72.33 60.02,-94.27 106.27,-111.98 37.39,-15.25 84.82,-38.58 84.82,-82.37 0,-53.62 -63.53,-64.12 -78.41,-64.15 -38.42,-0.1 -69.3,10.56 -100.79,39.1 l -28.62,-35.95 c 40.85,-35.92 80.69,-50.19 129.41,-50.19 62.96,0 128.4,33.46 128.4,111.19 0,75.28 -57.29,101.36 -120.76,125.46 -34.58,11.63 -71.99,38.56 -70.32,75.97 1.62,36.37 31.96,50.68 61.48,50.68 35.92,0 68.54,-12.36 90.19,-32.53 z m -336.43,530.16 c 1.62,36.37 31.99,50.67 61.5,50.67 35.92,0 68.54,-12.36 90.18,-32.53 l 32.52,35.78 c -30.5,27.06 -66.42,43.79 -115.62,43.79 -70.34,0 -118.57,-41.82 -118.57,-104.8 0,-72.32 60.03,-94.26 106.27,-111.98 37.41,-15.25 84.83,-38.57 84.83,-82.36 0,-53.63 -63.54,-64.12 -78.43,-64.16 -38.4,-0.09 -69.29,10.57 -100.77,39.1 l -28.63,-35.95 c 40.84,-35.91 80.69,-50.18 129.4,-50.18 62.98,0 128.41,33.46 128.41,111.19 0,75.28 -57.29,101.35 -120.75,125.46 -34.58,11.63 -72.01,38.55 -70.34,75.97 m -177.36,-306.07 h 48.99 v 400.49 h -48.99 z m 164.88,-185 h -231.24 v -400 h 234.19 v 46.54 h -184.69 v 137.47 h 144.35 v 46.05 h -144.35 v 123.4 h 181.74 z m -234.15,185 -104.79,166.3 c 51.66,12.79 88.56,58.55 88.56,115.62 0,65.93 -52.64,118.57 -118.07,118.57 h -130.38 v -400.49 h 48.99 v 162.85 h 53.53 l 102.83,-162.85 z m -127.23,208.9 h -88.46 v 145.05 h 88.46 c 33.95,0 61.01,-37.59 61.01,-72.03 0,-35.43 -27.06,-73.02 -61.01,-73.02 m -175.14,-393.41 h -92 v -400.49 h 92 c 112.18,0 195.82,83.64 195.82,199.75 0,116.61 -83.64,200.74 -195.82,200.74 m 151.72,-200.74 c 0,-84.13 -64.21,-160.29 -143.92,-160.29 l -56.15,-0.13 v 321.7 h 49.06 c 79.71,0 151.01,-76.65 151.01,-161.28 m -428.61,385.25 h 234.18 v 46.54 h -184.69 v 137.47 h 144.35 v 46.05 h -144.35 v 123.4 h 181.75 v 46.54 h -231.24 z m -194.12,168.27 129.39,232.22 h -49.29 l -100.56,-179.78 -100.58,179.78 h -48.8 l 128.41,-232.22 v -168.27 h 41.43 z M 1352,3513.11 l -170.24,412.3 -170.72,-412.3 h 51.4 l 29.76,71.54 h 176.97 l 29.4,-71.54 z m -99.68,117.59 h -142.59 l 72.03,171.91 z m -79.43,-290.29 -170.73,-412.3 h 51.4 l 29.77,71.54 h 176.95 l 29.41,-71.54 h 55.55 z m -72.04,-294.71 72.04,171.91 70.55,-171.91 z m -28.93,-311.33 c 7.09,0 13.74,6.65 13.74,13.74 0,5.8 -4.82,14.48 -14.11,14.48 -8.54,0 -13.74,-7.42 -13.37,-14.48 0.38,-7.08 6.65,-13.74 13.74,-13.74 m 81.76,0 c 7.09,0 13.74,6.65 13.74,13.74 0,5.8 -4.83,14.48 -14.1,14.48 -8.54,0 -13.74,-7.42 -13.38,-14.48 0.37,-7.08 6.65,-13.74 13.74,-13.74 m -147.36,15.31 h -22.668 v -276.99 c 0,-72.82 56.098,-129.4 128.418,-129.4 71.83,0 128.41,56.58 128.41,129.4 v 276.99 h -22.67 v -270.76 c 0,-66.91 -43.27,-112.96 -105.74,-112.96 -62.27,0 -105.75,46.05 -105.75,112.96 z m -96.398,988.77 c 22.144,13.78 35.422,45.76 35.422,71.34 0,58.55 -46.242,103.81 -103.324,103.81 H 727.395 l 0.492,-400.49 h 117.586 c 69.371,0 124.961,54.61 124.961,124.48 0,41.82 -25.09,84.13 -60.512,100.86 m -15.051,74.17 c 0,-26.56 -14.758,-59.12 -50.676,-59.12 h -67.308 v 113.56 h 65.133 c 26.085,0 52.851,-27.38 52.851,-54.44 m 25.582,-175.03 c 0,-38.38 -30.008,-70.85 -67.898,-70.85 h -75.184 l -0.484,140.71 72.718,0.49 c 46.25,-1.96 70.848,-32.96 70.848,-70.35 M 727.395,3329.31 v -400.49 h 199.75 v 46.54 H 776.887 v 353.95 z m 209.75,-579.63 H 727.066 v -406.39 h 22.664 v 205.98 h 147.567 v 22.67 H 749.73 v 158.19 h 187.415 z m -94.954,-585 H 727.555 v -406.39 h 22.672 v 175.15 h 91.964 c 62.977,0 112.172,51.66 112.172,116.11 0,63.47 -49.195,115.13 -112.172,115.13 m -91.964,-22.67 h 91.964 c 50.145,0 89.504,-40.81 89.504,-92.46 0,-52.5 -41.23,-92.95 -89.504,-92.95 h -91.964 z m 492.183,22.67 H 1032.32 V 1758.29 H 1055 v 205.98 h 147.55 v 22.67 H 1055 v 155.07 h 187.41 z m 79.47,0 h -22.68 v -406.39 h 184.51 v 22.67 h -161.83 z m 105.92,364.62 116.31,-186.01 h 24.93 l -116.32,187.57 h 12.3 c 59.04,0 103.73,50.07 103.73,110.58 0,59.04 -46.25,108.24 -105.29,108.24 h -119.54 v -406.39 h 22.66 v 186.01 z m -61.22,23.45 v 175.04 l 96.88,-0.78 c 36.95,0 82.62,-30.96 82.62,-85.57 0,-54.61 -39.44,-88.69 -82.62,-88.69 z m 339.88,775.85 v -281.53 l -266.37,286.94 v -405.9 h 49.5 v 283.5 l 266.37,-288.91 v 405.9 z m 62.15,-1163.92 h -210.07 v -406.39 h 213.53 v 22.67 h -190.86 v 178.69 h 147.55 v 22.67 h -147.55 v 159.69 h 187.4 z m 113.7,585 h -85.11 v -406.39 h 85.11 c 112.18,0 193.36,86.59 193.36,203.2 0,116.11 -81.18,203.19 -193.36,203.19 m -62.44,-22.67 h 69.53 c 92.78,0 162.82,-69.82 162.82,-180.52 0,-111.2 -79.4,-180.53 -162.82,-180.53 h -69.53 z m 1.48,-766.02 c 0,-119.06 83.15,-205.65 197.79,-205.65 74.29,0 132.83,29.04 166.78,83.64 l 0.5,0.98 v 128.59 H 2027.5 v -22.68 h 136.25 v -99.06 c -24.72,-38.11 -74.26,-68.8 -144.61,-68.8 -101.51,0 -175.12,76.22 -175.12,182.98 0,104.66 71.11,183.48 175.12,183.48 51.28,0 91.35,-14.74 127.58,-48.94 l 16.08,15.52 c -35.92,35.92 -86.1,56.09 -143.66,56.09 -114.64,0 -197.79,-86.59 -197.79,-206.15 m 365.92,404.97 v 178.69 h 147.55 v 22.67 h -147.55 v 159.69 h 187.4 v 22.67 h -210.08 v -406.39 h 213.53 v 22.67 z m 309.25,-201.28 h -210.08 v -406.39 h 213.53 v 22.67 h -190.86 v 178.69 h 147.56 v 22.67 h -147.56 v 159.69 h 187.41 z m 210.11,585 -3.91,-346.41 -256.66,351.82 v -411.8 h 22.68 v 344.45 l 260.55,-351.34 v 413.28 z m 347.96,-406.39 -201.7,209.1 199.74,197.29 h -27.1 l -174.42,-169.33 v 169.33 h -22.68 v -406.39 h 22.68 v 180.65 l 177.37,-180.65 z m 856.45,0 -163.83,411.31 -163.84,-411.31 h 23.16 l 40.84,98.81 h 199.68 l 40.34,-98.81 z m -67.92,119.92 h -188.7 l 92.79,230.3 z m -373.89,290.41 -153,-238.71 -153.02,238.71 -43.46,-410.33 h 23.17 l 35.33,342.69 133.54,-206.41 4.44,-6.88 3.92,6.88 137.44,206.41 36.62,-342.69 h 17.99 z m -25.56,587.77 -45.27,-413.28 h 49.99 l 27.06,282.71 130.59,-197.88 132.53,197.88 26.57,-282.71 h 49.01 l -41.33,412.3 -166.3,-242.76 z m 542.79,-591.71 v -406.39 h 184.5 v 22.67 h -161.82 v 383.72 h -22.68" /><path
         id="path16"
         style="fill:#4c97c2;fill-opacity:1;fill-rule:nonzero;stroke:none"
         d="M 4171.92,2164.7 H 2753.63 v -64.75 H 4171.92 Z M 2754.44,1898.64 V 719.172 l 376.71,0.527 2.61,39.551 41.25,34.32 v 731.03 c -13.35,-1.9 -47.69,-1.9 -47.69,34.33 0,38.16 38.16,30.54 55.33,32.43 1.68,59.1 -254.65,307.28 -428.21,307.28 m 660.9,-337.79 c 0,-36.25 -30.09,-36.72 -43.44,-34.82 V 793.59 l 41.97,-34.32 1.94,-39.75 756.75,-0.348 0.01,1112.518 c -429.16,234.61 -806.82,-150.67 -808.3,-238.89 17.16,-1.91 49.16,2.39 51.07,-31.95" /></g></g></svg>